<?xml version="1.0" encoding="utf-8"?>
<!-- Generator: Adobe Illustrator 25.2.3, SVG Export Plug-In . SVG Version: 6.00 Build 0)  -->
<svg version="1.1" id="Layer_1" xmlns="http://www.w3.org/2000/svg" xmlns:xlink="http://www.w3.org/1999/xlink" x="0px" y="0px"
	 viewBox="0 0 425.2 425.2" style="enable-background:new 0 0 425.2 425.2;" xml:space="preserve">
<style type="text/css">
	.st0{fill:#F9C213;}
	.st1{fill:#FFFFFF;}
	.st2{fill:none;}
	.st3{display:none;fill:#FFFFFF;}
	.st4{display:none;}
	.st5{display:inline;fill:#FFFFFF;}
</style>
<g id="Background">
	<rect x="-0.1" y="-0.1" class="st0" width="425.4" height="425.4"/>
</g>
<g id="Layer_1_1_">
	<polygon class="st1" points="43.5,47.3 65.8,47.3 46.6,121.3 60.9,121.3 79.7,48.8 79.7,35.5 43.5,35.5 	"/>
	<g id="Icon_7">
		<path class="st1" d="M212.8,206c-34.4,0-62.3,27.9-62.3,62.4s27.9,62.4,62.3,62.4s62.3-27.9,62.3-62.4S247.2,206,212.8,206
			 M208.1,230.6c0-2.1,2.1-4.4,4.6-4.4c2.6,0,4.6,2.3,4.6,4.4V252c0,2.1-2.1,4.3-4.6,4.3c-2.6,0-4.6-2.3-4.6-4.3V230.6z
			 M212.8,300.3c-17.9,0-32.4-14.5-32.4-32.4c0-14.6,9.6-26.9,22.8-31V249c-6.9,3.5-11.6,10.6-11.6,18.9c0,11.7,9.5,21.2,21.2,21.2
			s21.2-9.5,21.2-21.2c0-8.3-4.7-15.4-11.6-18.9v-12.1c13.2,4.1,22.9,16.4,22.9,31C245.2,285.8,230.7,300.3,212.8,300.3"/>
		<path class="st1" d="M141.2,267.8c0-2.8-2.5-5.1-4.8-5.1h-27.3c-2.3,0-4.8,2.3-4.8,5.1c0,2.8,2.5,5.1,4.8,5.1h27.3
			C138.7,272.9,141.2,270.6,141.2,267.8"/>
		<path class="st1" d="M321.3,267.8c0-2.8-2.5-5.1-4.8-5.1h-27.3c-2.3,0-4.8,2.3-4.8,5.1c0,2.8,2.5,5.1,4.8,5.1h27.3
			C318.8,272.9,321.3,270.6,321.3,267.8"/>
		<path class="st1" d="M212.8,196.2c2.8,0,5.1-2.5,5.1-4.8v-27.3c0-2.3-2.3-4.8-5.1-4.8s-5.1,2.5-5.1,4.8v27.3
			C207.6,193.7,209.9,196.2,212.8,196.2"/>
		<path class="st1" d="M212.8,376.3c2.8,0,5.1-2.5,5.1-4.8v-27.3c0-2.3-2.3-4.8-5.1-4.8s-5.1,2.5-5.1,4.8v27.3
			C207.6,373.8,209.9,376.3,212.8,376.3"/>
		<path class="st1" d="M150.6,232.3c1.4-2.5,0.4-5.7-1.6-6.8l-23.7-13.6c-2-1.1-5.3-0.4-6.7,2c-1.4,2.5-0.4,5.7,1.6,6.9l23.7,13.6
			C145.9,235.5,149.2,234.7,150.6,232.3"/>
		<path class="st1" d="M307,321.7c1.4-2.4,0.4-5.7-1.6-6.8l-23.7-13.6c-2-1.1-5.3-0.4-6.7,2c-1.4,2.5-0.4,5.7,1.6,6.9l23.7,13.6
			C302.2,324.9,305.5,324.2,307,321.7"/>
		<path class="st1" d="M248.3,205.7c2.5,1.4,5.7,0.4,6.8-1.6l13.6-23.7c1.1-2,0.4-5.3-2-6.7c-2.5-1.4-5.7-0.4-6.9,1.6L246.3,199
			C245.1,201,245.9,204.3,248.3,205.7"/>
		<path class="st1" d="M158.9,362c2.5,1.4,5.7,0.4,6.8-1.6l13.6-23.7c1.1-2,0.4-5.3-2-6.7c-2.5-1.4-5.7-0.4-6.9,1.6l-13.6,23.7
			C155.7,357.3,156.4,360.6,158.9,362"/>
		<path class="st1" d="M177.1,205.8c2.4-1.4,3.2-4.7,2-6.7l-13.6-23.7c-1.2-2-4.4-3-6.8-1.6c-2.5,1.4-3.2,4.8-2,6.7l13.6,23.7
			C171.4,206.1,174.6,207.2,177.1,205.8"/>
		<path class="st1" d="M266.9,361.9c2.5-1.4,3.2-4.7,2-6.7l-13.6-23.7c-1.2-2-4.4-3-6.8-1.6c-2.5,1.4-3.2,4.8-2,6.7l13.6,23.7
			C261.2,362.3,264.4,363.3,266.9,361.9"/>
		<path class="st1" d="M274.8,232.1c1.4,2.4,4.7,3.2,6.7,2l23.7-13.6c2-1.1,3.1-4.4,1.6-6.8c-1.4-2.5-4.8-3.2-6.7-2l-23.7,13.6
			C274.4,226.4,273.4,229.7,274.8,232.1"/>
		<path class="st1" d="M118.7,321.9c1.4,2.4,4.7,3.2,6.7,2l23.7-13.6c2-1.1,3.1-4.4,1.6-6.8c-1.4-2.5-4.8-3.2-6.7-2l-23.7,13.6
			C118.3,316.2,117.3,319.5,118.7,321.9"/>
	</g>
	<g id="English">
		<rect x="119.7" y="35.6" class="st2" width="296.5" height="156.6"/>
	</g>
	<polygon class="st3" points="43.5,47.3 65.8,47.3 46.6,121.3 60.9,121.3 79.7,48.8 79.7,35.5 43.5,35.5 	"/>
	<g class="st4">
		<path class="st5" d="M212.8,206c-34.4,0-62.3,27.9-62.3,62.4s27.9,62.4,62.3,62.4s62.3-27.9,62.3-62.4S247.2,206,212.8,206
			 M208.1,230.6c0-2.1,2.1-4.4,4.6-4.4c2.6,0,4.6,2.3,4.6,4.4V252c0,2.1-2.1,4.3-4.6,4.3c-2.6,0-4.6-2.3-4.6-4.3V230.6z
			 M212.8,300.3c-17.9,0-32.4-14.5-32.4-32.4c0-14.6,9.6-26.9,22.8-31V249c-6.9,3.5-11.6,10.6-11.6,18.9c0,11.7,9.5,21.2,21.2,21.2
			s21.2-9.5,21.2-21.2c0-8.3-4.7-15.4-11.6-18.9v-12.1c13.2,4.1,22.9,16.4,22.9,31C245.2,285.8,230.7,300.3,212.8,300.3"/>
		<path class="st5" d="M141.2,267.8c0-2.8-2.5-5.1-4.8-5.1h-27.3c-2.3,0-4.8,2.3-4.8,5.1c0,2.8,2.5,5.1,4.8,5.1h27.3
			C138.7,272.9,141.2,270.6,141.2,267.8"/>
		<path class="st5" d="M321.3,267.8c0-2.8-2.5-5.1-4.8-5.1h-27.3c-2.3,0-4.8,2.3-4.8,5.1c0,2.8,2.5,5.1,4.8,5.1h27.3
			C318.8,272.9,321.3,270.6,321.3,267.8"/>
		<path class="st5" d="M212.8,196.2c2.8,0,5.1-2.5,5.1-4.8v-27.3c0-2.3-2.3-4.8-5.1-4.8s-5.1,2.5-5.1,4.8v27.3
			C207.6,193.7,209.9,196.2,212.8,196.2"/>
		<path class="st5" d="M212.8,376.3c2.8,0,5.1-2.5,5.1-4.8v-27.3c0-2.3-2.3-4.8-5.1-4.8s-5.1,2.5-5.1,4.8v27.3
			C207.6,373.8,209.9,376.3,212.8,376.3"/>
		<path class="st5" d="M150.6,232.3c1.4-2.5,0.4-5.7-1.6-6.8l-23.7-13.6c-2-1.1-5.3-0.4-6.7,2c-1.4,2.5-0.4,5.7,1.6,6.9l23.7,13.6
			C145.9,235.5,149.2,234.7,150.6,232.3"/>
		<path class="st5" d="M307,321.7c1.4-2.4,0.4-5.7-1.6-6.8l-23.7-13.6c-2-1.1-5.3-0.4-6.7,2c-1.4,2.5-0.4,5.7,1.6,6.9l23.7,13.6
			C302.2,324.9,305.5,324.2,307,321.7"/>
		<path class="st5" d="M248.3,205.7c2.5,1.4,5.7,0.4,6.8-1.6l13.6-23.7c1.1-2,0.4-5.3-2-6.7c-2.5-1.4-5.7-0.4-6.9,1.6L246.3,199
			C245.1,201,245.9,204.3,248.3,205.7"/>
		<path class="st5" d="M158.9,362c2.5,1.4,5.7,0.4,6.8-1.6l13.6-23.7c1.1-2,0.4-5.3-2-6.7c-2.5-1.4-5.7-0.4-6.9,1.6l-13.6,23.7
			C155.7,357.3,156.4,360.6,158.9,362"/>
		<path class="st5" d="M177.1,205.8c2.4-1.4,3.2-4.7,2-6.7l-13.6-23.7c-1.2-2-4.4-3-6.8-1.6c-2.5,1.4-3.2,4.8-2,6.7l13.6,23.7
			C171.4,206.1,174.6,207.2,177.1,205.8"/>
		<path class="st5" d="M266.9,361.9c2.5-1.4,3.2-4.7,2-6.7l-13.6-23.7c-1.2-2-4.4-3-6.8-1.6c-2.5,1.4-3.2,4.8-2,6.7l13.6,23.7
			C261.2,362.3,264.4,363.3,266.9,361.9"/>
		<path class="st5" d="M274.8,232.1c1.4,2.4,4.7,3.2,6.7,2l23.7-13.6c2-1.1,3.1-4.4,1.6-6.8c-1.4-2.5-4.8-3.2-6.7-2l-23.7,13.6
			C274.4,226.4,273.4,229.7,274.8,232.1"/>
		<path class="st5" d="M118.7,321.9c1.4,2.4,4.7,3.2,6.7,2l23.7-13.6c2-1.1,3.1-4.4,1.6-6.8c-1.4-2.5-4.8-3.2-6.7-2l-23.7,13.6
			C118.3,316.2,117.3,319.5,118.7,321.9"/>
	</g>
	<g class="st4">
		<path class="st5" d="M120.1,71.5l6.8-35.9h6.9l6.8,35.9h-6.2l-1.1-6.6h-6.4l-1.1,6.6H120.1z M127.7,60.1h4.8l-2.4-14.4H130
			L127.7,60.1z"/>
		<path class="st5" d="M143,35.6h14.1v4.9H149v10.3h6v4.9h-6v15.8h-6V35.6z"/>
		<path class="st5" d="M159.8,35.6h14.1v4.9h-8.1v10.3h6v4.9h-6v15.8h-6V35.6z"/>
		<path class="st5" d="M176,62.2V44.9c0-5.6,2.7-9.7,9.1-9.7c6.4,0,9.1,4.1,9.1,9.7v17.3c0,5.6-2.7,9.7-9.1,9.7
			C178.8,71.9,176,67.8,176,62.2z M188.3,63.2V43.9c0-2.2-1-3.7-3.1-3.7s-3.1,1.5-3.1,3.7v19.3c0,2.2,1,3.7,3.1,3.7
			S188.3,65.3,188.3,63.2z"/>
		<path class="st5" d="M203.7,55v16.4h-6V35.6h8.8c6.1,0,8.3,3,8.3,8v4.6c0,3.9-1.4,6.1-4.8,6.9l5.8,16.3h-6.3L203.7,55z
			 M203.7,40.5v11.2h2c2.1,0,3-1.1,3-3v-5.3c0-2-0.9-2.9-3-2.9H203.7z"/>
		<path class="st5" d="M236.1,45.2v16.6c0,5.5-2.3,9.6-8.7,9.6h-9.3V35.6h9.3C233.8,35.6,236.1,39.7,236.1,45.2z M226.6,66.6
			c2.5,0,3.4-1.5,3.4-3.6V44.1c0-2.1-1-3.6-3.4-3.6h-2.5v26L226.6,66.6L226.6,66.6z"/>
		<path class="st5" d="M237.8,71.5l6.8-35.9h6.9l6.8,35.9h-6.2l-1.1-6.6h-6.4l-1.1,6.6H237.8z M245.4,60.1h4.8l-2.4-14.4h-0.1
			L245.4,60.1z"/>
		<path class="st5" d="M260.7,35.6h8.7c6,0,8,2.8,8,7.9v3.6c0,3-1.1,4.9-3.6,5.7c3,0.7,4.5,2.7,4.5,6v4.8c0,5.1-2.3,7.9-8.3,7.9
			h-9.4L260.7,35.6L260.7,35.6z M266.8,50.7h2.1c2,0,2.9-1,2.9-2.9v-4.4c0-2-0.9-2.9-2.9-2.9h-2.1V50.7z M266.8,55.3v11.2h2.6
			c2,0,3-1,3-2.9v-5.4c0-1.9-0.9-2.9-3-2.9C269.4,55.3,266.8,55.3,266.8,55.3z"/>
		<path class="st5" d="M281.4,35.6h6v30.9h7.2v4.9h-13.2V35.6z"/>
		<path class="st5" d="M297.4,35.6h14.4v4.9h-8.4v10.3h6v4.9h-6v10.9h8.4v4.9h-14.4V35.6z"/>
		<path class="st5" d="M319.6,71.5l6.8-35.9h6.9l6.8,35.9h-6.2l-1.1-6.6h-6.4l-1.1,6.6H319.6z M327.1,60.1h4.8l-2.4-14.4h-0.1
			L327.1,60.1z"/>
		<path class="st5" d="M347.6,48.9v22.5h-5.1V35.6h5.9l6.5,20.6V35.6h5v35.9h-5.3L347.6,48.9z"/>
		<path class="st5" d="M381.4,45.2v16.6c0,5.5-2.3,9.6-8.7,9.6h-9.3V35.6h9.3C379.2,35.6,381.4,39.7,381.4,45.2z M372,66.6
			c2.5,0,3.4-1.5,3.4-3.6V44.1c0-2.1-1-3.6-3.4-3.6h-2.5v26L372,66.6L372,66.6z"/>
		<path class="st5" d="M121,112.4V95.1c0-5.6,2.6-9.7,9-9.7c6.7,0,8.5,3.7,8.5,9v4.2H133v-4.7c0-2.2-0.7-3.5-2.9-3.5
			s-3.1,1.5-3.1,3.7v19.3c0,2.2,0.9,3.7,3.1,3.7s2.9-1.4,2.9-3.5V107h5.5v6.2c0,5.1-2.1,8.9-8.5,8.9C123.7,122.1,121,118,121,112.4z
			"/>
		<path class="st5" d="M141.8,85.8h6v30.9h7.2v4.9h-13.2V85.8z"/>
		<path class="st5" d="M157.8,85.8h14.4v4.9h-8.4V101h6v4.9h-6v10.9h8.4v4.9h-14.4V85.8z"/>
		<path class="st5" d="M174.4,121.7l6.8-35.9h6.9l6.8,35.9h-6.2l-1.1-6.6h-6.4l-1.1,6.6H174.4z M182,110.3h4.8l-2.4-14.4h-0.1
			L182,110.3z"/>
		<path class="st5" d="M202.5,99.2v22.5h-5.1V85.8h5.9l6.5,20.6V85.8h5v35.9h-5.3L202.5,99.2z"/>
		<path class="st5" d="M223.8,85.8h14.4v4.9h-8.4V101h6v4.9h-6v10.9h8.4v4.9h-14.4V85.8z"/>
		<path class="st5" d="M246.5,99.2v22.5h-5.1V85.8h5.9l6.5,20.6V85.8h5v35.9h-5.3L246.5,99.2z"/>
		<path class="st5" d="M262.3,85.8h14.4v4.9h-8.4V101h6v4.9h-6v10.9h8.4v4.9h-14.4V85.8z"/>
		<path class="st5" d="M286,105.3v16.4h-6V85.8h8.8c6.1,0,8.3,3,8.3,8v4.6c0,3.9-1.4,6.1-4.8,6.9l5.8,16.3h-6.3L286,105.3z
			 M286,90.8V102h2c2.1,0,3-1.1,3-3v-5.3c0-2-0.9-2.9-3-2.9C288,90.8,286,90.8,286,90.8z"/>
		<path class="st5" d="M309.4,102.6h8.6v19.1h-4.3v-3.9c-0.8,2.7-2.5,4.3-5.8,4.3c-5.2,0-7.6-4.1-7.6-9.7V95.1c0-5.6,2.7-9.7,9-9.7
			c6.7,0,8.6,3.7,8.6,9v3.2h-5.5V94c0-2.2-0.8-3.5-3-3.5s-3.1,1.5-3.1,3.7v19.3c0,2.2,0.9,3.7,3,3.7c2,0,3-1.1,3-3.4v-6.3h-2.9
			L309.4,102.6L309.4,102.6z"/>
		<path class="st5" d="M331.8,108.1v13.6h-6v-13.6L319,85.8h6.3l3.6,13.6h0.1l3.7-13.6h5.8L331.8,108.1z"/>
	</g>
</g>
<g id="Italian">
	<g>
		<path class="st1" d="M120.8,35.6h14.4v4.9h-8.4v10.3h6v4.9h-6v10.9h8.4v4.9h-14.4L120.8,35.6L120.8,35.6z"/>
		<path class="st1" d="M143.3,49v22.6h-5.1v-36h5.9l6.5,20.6V35.6h5v35.9h-5.3L143.3,49z"/>
		<path class="st1" d="M158.9,35.6h14.4v4.9h-8.4v10.3h6v4.9h-6v10.9h8.4v4.9h-14.4V35.6z"/>
		<path class="st1" d="M182.3,55.1v16.5h-6v-36h8.8c6.1,0,8.3,3,8.3,8.1v4.6c0,3.9-1.4,6.1-4.8,6.9l5.8,16.3H188L182.3,55.1z
			 M182.3,40.6v11.2h2c2.1,0,3-1.1,3-3v-5.3c0-2-0.9-2.9-3-2.9H182.3z"/>
		<path class="st1" d="M205.5,52.4h8.6v19.2h-4.3v-3.9c-0.8,2.7-2.5,4.3-5.8,4.3c-5.2,0-7.6-4.1-7.6-9.7V44.9c0-5.6,2.7-9.7,9.1-9.7
			c6.7,0,8.6,3.7,8.6,9v3.2h-5.5v-3.7c0-2.2-0.8-3.5-3-3.5s-3.1,1.5-3.1,3.7v19.3c0,2.2,0.9,3.7,3,3.7c2,0,3-1.1,3-3.4v-6.4h-2.9
			v-4.7H205.5z"/>
		<path class="st1" d="M217.3,35.6h6v35.9h-6V35.6z"/>
		<path class="st1" d="M225.6,71.6l6.8-35.9h6.9l6.8,35.9h-6.2l-1.1-6.6h-6.4l-1.1,6.6H225.6z M233.2,60.2h4.8l-2.4-14.4h-0.1
			L233.2,60.2z"/>
		<path class="st1" d="M253.6,35.6h9c6.1,0,8.3,3,8.3,8.1v7.6c0,5-2.2,8.1-8.3,8.1h-2.9v12.2h-6v-36H253.6z M259.7,40.6v14.1h2.2
			c2.1,0,3-1,3-3v-8.3c0-2-0.9-2.9-3-2.9h-2.2V40.6z"/>
		<path class="st1" d="M291.3,35.6v27.2c0,5.6-2.4,9.2-8.5,9.2c-6.4,0-9-3.6-9-9.2V35.6h6v27.8c0,2.1,0.8,3.6,3,3.6
			c2.1,0,3-1.4,3-3.6V35.6H291.3z"/>
		<path class="st1" d="M294.5,35.6h6v31h7.2v4.9h-13.2V35.6z"/>
		<path class="st1" d="M310.2,35.6h6v35.9h-6V35.6z"/>
		<path class="st1" d="M318.8,35.6h16.1v4.9h-5v31h-6.1v-31h-5V35.6z"/>
		<path class="st1" d="M333.8,71.6l6.8-35.9h6.9l6.8,35.9h-6.2L347,65h-6.4l-1.1,6.6H333.8z M341.4,60.2h4.8l-2.4-14.4h-0.1
			L341.4,60.2z"/>
		<path class="st1" d="M120.8,85.6h14.4v4.9h-8.4v10.3h6v4.9h-6v10.9h8.4v4.9h-14.4L120.8,85.6L120.8,85.6z"/>
		<path class="st1" d="M142.5,121.6l6.8-35.9h6.9l6.8,35.9h-6.2l-1.1-6.6h-6.4l-1.1,6.6H142.5z M150.1,110.2h4.8l-2.4-14.4h-0.1
			L150.1,110.2z"/>
		<path class="st1" d="M164.5,112.3V94.9c0-5.6,2.6-9.7,9-9.7c6.7,0,8.5,3.7,8.5,9v4.2h-5.5v-4.7c0-2.2-0.7-3.5-2.9-3.5
			s-3.1,1.5-3.1,3.7v19.3c0,2.2,0.9,3.7,3.1,3.7c2.2,0,2.9-1.4,2.9-3.5v-6.6h5.5v6.2c0,5.1-2.1,9-8.5,9
			C167.1,122,164.5,117.9,164.5,112.3z"/>
		<path class="st1" d="M185.1,112.3V94.9c0-5.6,2.6-9.7,9-9.7c6.7,0,8.5,3.7,8.5,9v4.2h-5.5v-4.7c0-2.2-0.7-3.5-2.9-3.5
			s-3.1,1.5-3.1,3.7v19.3c0,2.2,0.9,3.7,3.1,3.7c2.2,0,2.9-1.4,2.9-3.5v-6.6h5.5v6.2c0,5.1-2.1,9-8.5,9
			C187.7,122,185.1,117.9,185.1,112.3z"/>
		<path class="st1" d="M205.6,85.6H220v4.9h-8.4v10.3h6v4.9h-6v10.9h8.4v4.9h-14.4V85.6z"/>
		<path class="st1" d="M222.4,113.8V109h5.6v4.9c0,2,0.9,3.2,3,3.2c1.9,0,2.8-1.3,2.8-3.2v-1.4c0-2.1-0.8-3.3-2.7-5.1l-3.6-3.6
			c-3.4-3.4-5-5.5-5-9.6V93c0-4.5,2.6-7.9,8.5-7.9c6,0,8.4,3,8.4,8.2v2.9h-5.5v-3.1c0-2.1-1-3.1-2.9-3.1c-1.7,0-2.9,1-2.9,3v0.7
			c0,2,1.1,3.2,2.9,4.9l3.9,3.8c3.3,3.3,4.9,5.4,4.9,9.3v1.7c0,4.9-2.6,8.4-8.8,8.4C224.8,122,222.4,118.5,222.4,113.8z"/>
		<path class="st1" d="M242.1,113.8V109h5.6v4.9c0,2,0.9,3.2,3,3.2c1.9,0,2.8-1.3,2.8-3.2v-1.4c0-2.1-0.8-3.3-2.7-5.1l-3.6-3.6
			c-3.4-3.4-5-5.5-5-9.6V93c0-4.5,2.6-7.9,8.5-7.9c6,0,8.4,3,8.4,8.2v2.9h-5.5v-3.1c0-2.1-1-3.1-2.9-3.1c-1.7,0-2.9,1-2.9,3v0.7
			c0,2,1.1,3.2,2.9,4.9l3.9,3.8c3.3,3.3,4.9,5.4,4.9,9.3v1.7c0,4.9-2.6,8.4-8.8,8.4C244.5,122,242.1,118.5,242.1,113.8z"/>
		<path class="st1" d="M262.3,85.6h6v35.9h-6V85.6z"/>
		<path class="st1" d="M271.6,85.6h8.7c6,0,8.1,2.8,8.1,7.9v3.7c0,3-1.1,4.9-3.6,5.7c3,0.7,4.5,2.7,4.5,6v4.8c0,5.1-2.3,7.9-8.3,7.9
			h-9.4L271.6,85.6L271.6,85.6z M277.6,100.8h2.1c2,0,2.9-1,2.9-2.9v-4.4c0-2-0.9-2.9-2.9-2.9h-2.1V100.8z M277.6,105.4v11.2h2.6
			c2,0,3-1,3-2.9v-5.4c0-1.9-0.9-2.9-3-2.9C280.2,105.4,277.6,105.4,277.6,105.4z"/>
		<path class="st1" d="M292.1,85.6h6v35.9h-6V85.6z"/>
		<path class="st1" d="M301.3,85.6h6v31h7.2v4.9h-13.2V85.6z"/>
		<path class="st1" d="M317.1,85.6h14.4v4.9h-8.4v10.3h6v4.9h-6v10.9h8.4v4.9h-14.4V85.6z"/>
	</g>
</g>
</svg>
