<?xml version="1.0" encoding="utf-8"?>
<!-- Generator: Adobe Illustrator 25.2.3, SVG Export Plug-In . SVG Version: 6.00 Build 0)  -->
<svg version="1.1" xmlns="http://www.w3.org/2000/svg" xmlns:xlink="http://www.w3.org/1999/xlink" x="0px" y="0px"
	 viewBox="0 0 425.2 425.2" style="enable-background:new 0 0 425.2 425.2;" xml:space="preserve">
<style type="text/css">
	.st0{fill:#3F7F44;}
	.st1{fill:#FFFFFF;}
</style>
<g id="Background">
	<rect y="-0.1" class="st0" width="425.4" height="425.4"/>
</g>
<g id="ICONS">
	<g id="NUMBER_13">
		<polygon class="st1" points="53.7,35.6 53.7,121.3 39.3,121.3 39.3,55.7 39.2,55.7 29,66.2 28.9,66.2 28.9,51.1 42.2,35.6 		"/>
		<path class="st1" d="M101.2,54.2v7.5c0,7.2-3.9,12-9.9,13.9c7.2,1.6,10.6,6.7,10.6,14.5v12.6c0,11.9-6.3,19.6-20.9,19.6
			c-14.7,0-19.9-8.3-19.9-21.4V89.7h13.2V102c0,5.1,1.8,8.3,6.7,8.3c4.4,0,6.4-3.2,6.4-7.7V88.4c0-4.6-2-7-7.1-7h-6.1v-11h5.4
			c4.7,0,7.7-2.4,7.7-7v-9.2c0-4.7-1.6-7.7-6.2-7.7c-4.5,0-6.2,3-6.2,8.3v8.7H62v-7.6c0-12.6,5.2-21.5,20.1-21.5
			C95.4,34.6,101.2,42,101.2,54.2"/>
	</g>
	<path id="Icon_13" class="st1" d="M372,266.2c-11.2-15.7-61.9-78.5-156.1-78.5c-94.3,0-144.9,62.8-156.2,78.5
		c-0.5,0.7-0.9,1.3-1.2,1.7c0.3,0.5,0.7,1.1,1.2,1.8c11.2,15.7,61.9,78.5,156.2,78.5c94.2,0,144.9-62.8,156.1-78.5
		c0.5-0.7,0.9-1.3,1.2-1.8C372.9,267.5,372.5,266.9,372,266.2 M163.3,227.4c0.8-1.2,3.7-4.8,4-5.3c0.7-0.9,2.2-1.1,3.2-1.3
		c1-0.2,2.3,0.4,2.5,1.1c0.2,0.8-0.4,3.7-0.9,4.2c-1.4,1.4-5,3.5-7,3.1C163.6,229.1,163,227.9,163.3,227.4 M159.9,234.1
		c0.1-0.2,0.3-0.3,0.3-0.4c1.2-1.4,3.5-1.6,5.2-1.9c1.6-0.3,3.8,0.5,4.1,1.6c0.3,1.1-4.1,3.1-4.9,3.8c-2.3,2.1-5.8,6.3-7.9,6.8
		c-0.7,0.2-1.2,0-1.7-0.2C156.4,240.5,158,237.2,159.9,234.1 M195.2,306.5c-1.3,5-2.8,6.8-4,8.4c-1.3,1.6-6,3.6-9,3.4
		c-3-0.2-3.4-8.2-3.4-12.3c0-1.4-2,2.8-3-5.7c-0.7-5.5-4.2,0.6-4.4-3.1c-0.3-3.6-2-2.9-3.8-5.2c-1.8-2.3-4.1,0.2-6.7,1.4
		c-2.5,1.1-1.5,1.7-5.1,0.6c-0.1,0-0.1-0.1-0.2-0.1c-3.3-7.9-5.2-16.5-5.2-25.6c0-2.2,0.1-4.4,0.3-6.6c0.1-0.2,0.3-0.4,0.4-0.6
		c3.5-4.1,3.4-5.1,3.4-5.1l3.8-1.3c0,0,6.1,0.9,10.8,2.7c3.8,1.4,9.8,4.7,13.3,3.2c2.5-1,4.5-2.4,4.3-4.5c-0.3-2.6-2.4-3.3-4.9-1.5
		c-0.9,0.7-2.9-4-4.4-3.7c-1.5,0.2,1.9,5.4,0.6,5.7c-1.3,0.2-4-5.4-4.4-6.3c-0.4-0.9-2.5-3.2-4.3-1.4c-3.9,3.7-10.2,3.5-11.4,4.4
		c-3.8,2.9-4.9-0.9-4.8-3.3c0.2-0.5,0.3-1.1,0.5-1.6c1.3-1.4,5.8-1.8,7.3-0.8c1.7,1.1,2.9-0.3,3.6-1c0.7-0.7,0.4-1.8,0-2.7
		c-0.4-0.9,0.8-1.6,1.7-1.8c0.9-0.2,3.8-2.3,5-3c1.2-0.7,7.2-1.4,10-0.1c2.7,1.4,5.2,0.3,6.6-1.3c1.7-2,3.8-3.5,4.8-4
		c1-0.4-2.3-3.5-5-0.2c-2.7,3.3-4.1,3.6-5.4,3.6c-1.3,0-8.9-1.9-9.8-4.3c-0.9-2.4,2.4-4.2,5.2-5.5c2.8-1.3,10.5-1.3,12.4-1.8
		c4-0.9,9.1-2.9,11.6-1.1c2.6,1.7-10.7,4.7-6.3,7.1c1.5,0.9,8.6-4,11-5.3c5.6-2.9-5.5-3.9-4-9.8c1.6-6.7-13.6-4.1-21.3-3.5
		c10.2-6.5,22.3-10.3,35.4-10.3c31,0,56.9,21.5,63.8,50.3c0,1.4-0.2,2.5-0.3,3c-0.6,2.4-5.1,4.4-7.7,0.6c-0.7-1-3.5-3.6-3.4,0.9
		c0.1,4.6,4.4,5,0.2,7.7c-4.2,2.7-5,2.1-6.9,2.8c-1.9,0.7-3.8,5.4-3.3,7.9c0.5,2.5,6.5,9.3,2,9.1c-1-0.1-8.9-5.4-10.2-8.9
		c-1.4-3.6-2.9-7.2-3.9-9.9c-1.1-2.7-3.8-3.4-6.2-1.8c-2.3,1.6,0.7,3.2-1,6.6c-1.7,3.4-2.9,6.5-5.3,3.6c-6.4-7.3-15.7-3.7-17.2-11.9
		c-0.8-4.4-4.6-4-7.8-6.5c-3.2-2.5-5-3.9-5.5-2c-0.5,1.6,10,9.9,10.8,12.1c1.1,3.2-3.1,6-6.3,6.7c-3.1,0.7-4.5-1.8-7.5-4.9
		c-3.1-3.2-4.4-5.5-4.6-3c-0.3,3.6,2.9,8.9,6,10.9c2.7,1.7,5.6,2.4,4.8,5.2c-0.9,2.7,0,1.2-3,4.1c-3,3-3.5,3.9-3.3,8
		c0.2,4.1-0.9,4.3-1.5,7.7C198,304.4,196.5,301.5,195.2,306.5 M265.6,280.3c2.2-0.2,5.5,2.9,4.2,4.1c-1.3,1.2-4.6,0.7-6.3-0.6
		C262,282.5,264.7,280.4,265.6,280.3 M262.9,278.3c-0.7-0.3-1.3-0.9-1.9-2.5c-0.5-1.6,0.8-2.5,2.1-1.9c1.3,0.7,3.1,2.7,3.1,3.8
		C266.2,278.7,263.6,278.6,262.9,278.3 M233.9,278.2c-1.3,1.2-4.6,0.7-6.3-0.6c-1.6-1.3,1-3.4,2-3.5
		C231.8,273.9,235.2,277,233.9,278.2 M207.1,291.2c-0.9,1.5-3.4,12.5-5,11.2c-1.7-1.3,0.7-12.8,1.2-13.7
		C205.8,284,211.4,284.2,207.1,291.2 M216,334c-6.4,0-12.6-0.9-18.5-2.6c-0.8-0.7-1.3-1.8-0.8-3.2c2-5.3,8.1-7.4,12.9-7.8
		c10.6-1,24.6,6.9,26.9,5.6c2.2-1.3,6.7-7.1,13.3-6.9c4.5,0.2,4.5,0.9,6,1.5C244.7,329,231,334,216,334 M262.3,314.9
		c-0.7-0.2-1.3-0.4-2.1-0.8c-3.6-1.8-3.2,1.1-4.9,0.4c-1.8-0.7,2-4.7-3.3-1.3c-5.3,3.4-3.8-0.5-6.1-6.4c-2.3-5.8,2.6-12.5,6.8-14
		c5.7-2.1,9.2-2.5,11.9-3.1c7.9-2,9.6-6.7,11-3.8c0.3,0.5,0.5,1,0.8,1.5c0.5,0.9,1,2.6,1,4.3C274,300.5,268.8,308.4,262.3,314.9
		 M280.3,281.7c-1.8-0.5-9.1-10.7-3.3-17.4c1-1.1-2-4.3-1.2-4.4c3.2-0.2,4.9,1.7,5.7,4.6c0.1,1.3,0.1,2.5,0.1,3.8
		C281.7,272.9,281.2,277.4,280.3,281.7"/>
</g>
<g id="Italian">
	<g>
		<path class="st1" d="M131.2,34.7h6v31h7.2v4.9h-13.2V34.7z"/>
		<path class="st1" d="M146.7,61.3V43.9c0-5.6,2.8-9.7,9.1-9.7c6.4,0,9.2,4.1,9.2,9.7v17.4c0,5.6-2.8,9.7-9.2,9.7
			C149.5,71,146.7,66.9,146.7,61.3z M159,62.3V43c0-2.2-1-3.7-3.1-3.7c-2.1,0-3.1,1.5-3.1,3.7v19.3c0,2.2,1,3.7,3.1,3.7
			C158,66,159,64.4,159,62.3z"/>
		<path class="st1" d="M166.7,34.7h16.1v4.9h-5v31h-6.1v-31h-5V34.7z"/>
		<path class="st1" d="M184.6,34.7h16.1v4.9h-5v31h-6.1v-31h-5V34.7z"/>
		<path class="st1" d="M199.6,70.6l6.8-35.9h6.9l6.8,35.9h-6.2l-1.1-6.6h-6.4l-1.1,6.6H199.6z M207.2,59.2h4.8l-2.4-14.4h-0.1
			L207.2,59.2z"/>
		<path class="st1" d="M227.6,61.3V43.9c0-5.6,2.7-9.7,9-9.7c6.7,0,8.5,3.7,8.5,9v4.2h-5.5v-4.7c0-2.2-0.7-3.5-2.9-3.5
			c-2.2,0-3.1,1.5-3.1,3.7v19.3c0,2.2,0.9,3.7,3.1,3.7c2.2,0,2.9-1.4,2.9-3.5v-6.6h5.5v6.2c0,5.1-2.1,9-8.5,9
			C230.3,71,227.6,66.9,227.6,61.3z"/>
		<path class="st1" d="M248.2,61.3V43.9c0-5.6,2.8-9.7,9.1-9.7c6.4,0,9.2,4.1,9.2,9.7v17.4c0,5.6-2.8,9.7-9.2,9.7
			C251,71,248.2,66.9,248.2,61.3z M260.4,62.3V43c0-2.2-1-3.7-3.1-3.7c-2.1,0-3.1,1.5-3.1,3.7v19.3c0,2.2,1,3.7,3.1,3.7
			C259.5,66,260.4,64.4,260.4,62.3z"/>
		<path class="st1" d="M274.8,48v22.6h-5.1V34.7h5.9l6.5,20.6V34.7h5v35.9h-5.3L274.8,48z"/>
		<path class="st1" d="M289.7,34.7h16.1v4.9h-5v31h-6.1v-31h-5V34.7z"/>
		<path class="st1" d="M314.3,54.1v16.5h-6V34.7h8.8c6.1,0,8.3,3,8.3,8.1v4.6c0,3.9-1.4,6.1-4.8,6.9l5.8,16.3H320L314.3,54.1z
			 M314.3,39.6v11.2h2c2.1,0,3-1.1,3-3v-5.3c0-2-0.9-2.9-3-2.9H314.3z"/>
		<path class="st1" d="M328.4,61.3V43.9c0-5.6,2.8-9.7,9.1-9.7c6.4,0,9.2,4.1,9.2,9.7v17.4c0,5.6-2.8,9.7-9.2,9.7
			C331.2,71,328.4,66.9,328.4,61.3z M340.6,62.3V43c0-2.2-1-3.7-3.1-3.7c-2.1,0-3.1,1.5-3.1,3.7v19.3c0,2.2,1,3.7,3.1,3.7
			C339.7,66,340.6,64.4,340.6,62.3z"/>
		<path class="st1" d="M131.2,84.7h6v35.9h-6V84.7z"/>
		<path class="st1" d="M140.5,84.7h6v31h7.2v4.9h-13.2V84.7z"/>
		<path class="st1" d="M161.6,111.3V93.9c0-5.6,2.6-9.7,9-9.7c6.7,0,8.5,3.7,8.5,9v4.2h-5.5v-4.7c0-2.2-0.7-3.5-2.9-3.5
			c-2.2,0-3.1,1.5-3.1,3.7v19.3c0,2.2,0.9,3.7,3.1,3.7c2.2,0,2.9-1.4,2.9-3.5v-6.6h5.5v6.2c0,5.1-2.1,9-8.5,9
			C164.2,121,161.6,116.9,161.6,111.3z"/>
		<path class="st1" d="M180.6,120.6l6.8-35.9h6.9l6.8,35.9h-6.2l-1.1-6.6h-6.4l-1.1,6.6H180.6z M188.2,109.2h4.8l-2.4-14.4h-0.1
			L188.2,109.2z"/>
		<path class="st1" d="M220,97.3h-0.2l-4.1,23.3H213l-4.5-23.3h-0.1v23.3h-5V84.7h7l3.9,20.2h0.1l3.5-20.2h7.6v35.9H220V97.3z"/>
		<path class="st1" d="M228.7,84.7h8.7c6,0,8.1,2.8,8.1,7.9v3.7c0,3-1.1,4.9-3.6,5.7c3,0.7,4.5,2.7,4.5,6v4.8c0,5.1-2.3,7.9-8.3,7.9
			h-9.4V84.7z M234.7,99.8h2.1c2,0,2.9-1,2.9-2.9v-4.4c0-2-0.9-2.9-2.9-2.9h-2.1V99.8z M234.7,104.4v11.2h2.6c2,0,3-1,3-2.9v-5.4
			c0-1.9-0.9-2.9-3-2.9H234.7z"/>
		<path class="st1" d="M249.2,84.7h6v35.9h-6V84.7z"/>
		<path class="st1" d="M257.5,120.6l6.8-35.9h6.9l6.8,35.9h-6.2l-1.1-6.6h-6.4l-1.1,6.6H257.5z M265.1,109.2h4.8l-2.4-14.4h-0.1
			L265.1,109.2z"/>
		<path class="st1" d="M296.9,97.3h-0.2l-4.1,23.3h-2.8l-4.5-23.3h-0.1v23.3h-5V84.7h7l3.9,20.2h0.1l3.5-20.2h7.6v35.9h-5.5V97.3z"
			/>
		<path class="st1" d="M305.6,84.7H320v4.9h-8.4v10.3h6v4.9h-6v10.9h8.4v4.9h-14.4V84.7z"/>
		<path class="st1" d="M328,98v22.6h-5.1V84.7h5.9l6.5,20.6V84.7h5v35.9h-5.3L328,98z"/>
		<path class="st1" d="M342.9,84.7H359v4.9h-5v31h-6.1v-31h-5V84.7z"/>
		<path class="st1" d="M360.7,111.3V93.9c0-5.6,2.8-9.7,9.1-9.7c6.4,0,9.2,4.1,9.2,9.7v17.4c0,5.6-2.8,9.7-9.2,9.7
			C363.5,121,360.7,116.9,360.7,111.3z M373,112.3V93c0-2.2-1-3.7-3.1-3.7c-2.1,0-3.1,1.5-3.1,3.7v19.3c0,2.2,1,3.7,3.1,3.7
			C372,116,373,114.4,373,112.3z"/>
		<path class="st1" d="M131.2,161.3v-17.4c0-5.6,2.6-9.7,9-9.7c6.7,0,8.5,3.7,8.5,9v4.2h-5.5v-4.7c0-2.2-0.7-3.5-2.9-3.5
			c-2.2,0-3.1,1.5-3.1,3.7v19.3c0,2.2,0.9,3.7,3.1,3.7c2.2,0,2.9-1.4,2.9-3.5v-6.6h5.5v6.2c0,5.1-2.1,9-8.5,9
			C133.9,171,131.2,166.9,131.2,161.3z"/>
		<path class="st1" d="M151.8,134.7h6v31h7.2v4.9h-13.2V134.7z"/>
		<path class="st1" d="M167.5,134.7h6v35.9h-6V134.7z"/>
		<path class="st1" d="M193.5,147.3h-0.2l-4.1,23.3h-2.8l-4.5-23.3h-0.1v23.3h-5v-35.9h7l3.9,20.2h0.1l3.5-20.2h7.6v35.9h-5.5V147.3
			z"/>
		<path class="st1" d="M201.2,170.6l6.8-35.9h6.9l6.8,35.9h-6.2l-1.1-6.6H208l-1.1,6.6H201.2z M208.8,159.2h4.8l-2.4-14.4h-0.1
			L208.8,159.2z"/>
		<path class="st1" d="M220.6,134.7h16.1v4.9h-5v31h-6.1v-31h-5V134.7z"/>
		<path class="st1" d="M239.2,134.7h6v35.9h-6V134.7z"/>
		<path class="st1" d="M248.5,161.3v-17.4c0-5.6,2.6-9.7,9-9.7c6.7,0,8.5,3.7,8.5,9v4.2h-5.5v-4.7c0-2.2-0.7-3.5-2.9-3.5
			c-2.2,0-3.1,1.5-3.1,3.7v19.3c0,2.2,0.9,3.7,3.1,3.7c2.2,0,2.9-1.4,2.9-3.5v-6.6h5.5v6.2c0,5.1-2.1,9-8.5,9
			C251.1,171,248.5,166.9,248.5,161.3z"/>
		<path class="st1" d="M269,161.3v-17.4c0-5.6,2.8-9.7,9.1-9.7c6.4,0,9.2,4.1,9.2,9.7v17.4c0,5.6-2.8,9.7-9.2,9.7
			C271.8,171,269,166.9,269,161.3z M281.3,162.3V143c0-2.2-1-3.7-3.1-3.7c-2.1,0-3.1,1.5-3.1,3.7v19.3c0,2.2,1,3.7,3.1,3.7
			C280.3,166,281.3,164.4,281.3,162.3z"/>
	</g>
</g>
</svg>
